<svg width="270" height="68" viewBox="0 0 270 68" fill="none" xmlns="http://www.w3.org/2000/svg">
<path d="M161.056 42.5299C159.875 43.9226 158.153 45.0034 155.89 45.7723C153.628 46.5267 151.12 46.8821 148.368 46.8386C145.731 46.8095 143.504 46.1422 141.689 44.8365C139.873 43.5309 138.576 41.7102 137.798 39.3745C137.02 37.0388 136.811 34.4057 137.171 31.4752L137.344 30.1695C138.007 25.2515 139.722 21.3563 142.488 18.4838C145.27 15.6113 148.671 14.2114 152.691 14.2839C156.207 14.3419 158.909 15.2922 160.797 17.1346C162.685 18.9771 163.737 21.6392 163.953 25.121L156.863 25.0992C156.762 23.4018 156.344 22.1614 155.609 21.378C154.889 20.5946 153.858 20.1812 152.518 20.1377C150.53 20.0651 148.887 20.8558 147.59 22.5096C146.293 24.149 145.407 26.4992 144.931 29.5602C144.528 32.1716 144.383 34.2026 144.499 35.6533C144.715 39.1496 146.278 40.9195 149.189 40.9631C150.947 40.9921 152.489 40.5641 153.815 39.6791L154.788 34.7394H149.665L150.573 29.4949H163.088L161.056 42.5299Z" fill="white"/>
<path d="M178.587 43.8573C176.843 45.9318 174.739 46.9401 172.275 46.8821C169.984 46.8531 168.255 46.0479 167.087 44.4666C165.934 42.8853 165.488 40.7672 165.747 38.1123L168.276 22.8796H175.388L172.815 38.1994C172.772 38.6201 172.772 39.0046 172.815 39.3527C172.916 40.5423 173.615 41.1589 174.912 41.2024C176.411 41.2605 177.686 40.6657 178.738 39.418L181.635 22.8796H188.79L184.726 46.4251H178.111L178.587 43.8573Z" fill="white"/>
<path d="M196.052 46.4251H188.919L194.669 13H201.802L196.052 46.4251Z" fill="white"/>
<path d="M211.313 36.0668L217.366 22.8796H225.212L211.508 49.9504C210.485 52.083 209.303 53.6208 207.963 54.5638C206.637 55.5213 205.052 56 203.207 56C202.386 56 201.341 55.8404 200.073 55.5213L200.613 50.2768H201.435C202.314 50.2768 203.085 50.1317 203.748 49.8416C204.411 49.566 204.965 49.0219 205.412 48.2095L206.428 46.251L202.688 22.8796H210.038L211.313 36.0668Z" fill="white"/>
<path d="M235.89 46.4251C235.689 45.8593 235.588 45.1484 235.588 44.2925C233.988 46.0624 232.079 46.9184 229.859 46.8603C227.828 46.8313 226.142 46.1495 224.801 44.8148C223.461 43.4801 222.834 41.8625 222.921 39.962C222.993 37.4087 224.052 35.4502 226.098 34.0865C228.145 32.7083 230.94 32.0192 234.485 32.0192L236.863 32.0628L237.122 30.7353L237.209 29.582C237.151 28.2618 236.496 27.58 235.242 27.5364C233.685 27.5074 232.727 28.3706 232.367 30.126L225.234 30.1478C225.306 28.5665 225.817 27.1955 226.768 26.0349C227.72 24.8598 229.009 23.9604 230.638 23.3365C232.28 22.6982 234.024 22.4008 235.869 22.4443C237.641 22.4879 239.19 22.865 240.516 23.5759C241.856 24.2723 242.858 25.2515 243.521 26.5137C244.184 27.7613 244.436 29.2048 244.277 30.8441L242.526 41.9205L242.418 43.2697C242.361 44.3433 242.498 45.2573 242.829 46.0116L242.807 46.4251H235.89ZM231.827 41.6812C233.282 41.7392 234.557 41.0936 235.653 39.7444L236.366 35.958L234.528 35.9362C233.39 35.9652 232.41 36.3062 231.589 36.959C230.767 37.5973 230.285 38.475 230.14 39.5921C230.068 40.1869 230.177 40.6802 230.465 41.0719C230.767 41.4491 231.221 41.6522 231.827 41.6812Z" fill="white"/>
<path d="M256.101 36.0668L262.153 22.8796H270L256.296 49.9504C255.272 52.083 254.091 53.6208 252.751 54.5638C251.425 55.5213 249.84 56 247.995 56C247.174 56 246.129 55.8404 244.861 55.5213L245.401 50.2768H246.223C247.102 50.2768 247.873 50.1317 248.536 49.8416C249.198 49.566 249.753 49.0219 250.2 48.2095L251.216 46.251L247.476 22.8796H254.826L256.101 36.0668Z" fill="white"/>
<path d="M116 68H0L30.9732 14.5746L39.1422 28.6676H39.1462L52.4117 51.5515L42.1619 23.4627L55.7647 0L74.6185 32.5207V32.5247L88.0018 55.6069L78.1177 26.4941L85.0268 14.5746L116 68Z" fill="white"/>
</svg>
