<svg width="25" height="20" viewBox="0 0 25 20" fill="none" xmlns="http://www.w3.org/2000/svg">
<path d="M24.6154 2.3673C23.6904 2.77384 22.7176 3.04487 21.7129 3.16444C22.7654 2.5347 23.5549 1.53828 23.9376 0.374456C22.9488 0.964339 21.8644 1.37885 20.7321 1.60205C18.8263 -0.438625 15.6288 -0.542252 13.5955 1.36291C12.2718 2.59847 11.7136 4.44783 12.1283 6.20951C8.06957 6.00225 4.28198 4.08912 1.72236 0.932453C1.27582 1.70568 1.03661 2.58253 1.03661 3.46735C1.03661 5.22106 1.92968 6.76751 3.28524 7.66827C2.47988 7.64436 1.69844 7.42913 0.996736 7.03853V7.1023C0.996736 9.50966 2.69517 11.5742 5.04747 12.0525C4.3059 12.2518 3.52446 12.2837 2.76694 12.1402C3.42877 14.1968 5.32656 15.6078 7.48748 15.6476C5.35845 17.2977 2.67125 18.055 0 17.7282C2.31243 19.2108 4.99963 20 7.74264 20C17.0322 20 22.1116 12.3076 22.1116 5.63557C22.1116 5.42034 22.1036 5.19714 22.0956 4.98192C23.0844 4.26449 23.9376 3.37967 24.6154 2.3673Z" fill="white"/>
</svg>
