<svg width="20" height="20" viewBox="0 0 20 20" fill="none" xmlns="http://www.w3.org/2000/svg">
<path d="M9.99603 0C12.7135 0 13.0552 0.00794597 14.12 0.0635678C15.1847 0.111244 15.9078 0.278109 16.5515 0.53238C17.211 0.786651 17.7672 1.12833 18.3234 1.68455C18.8319 2.18514 19.2292 2.78904 19.4756 3.4565C19.7219 4.09218 19.8888 4.8232 19.9444 5.88796C19.9921 6.95272 20.0079 7.2944 20.0079 10.0119C20.0079 12.7294 20 13.0711 19.9444 14.1359C19.8967 15.2006 19.7298 15.9237 19.4756 16.5673C19.2213 17.2348 18.8319 17.8387 18.3234 18.3393C17.8228 18.8478 17.2189 19.2372 16.5515 19.4915C15.9158 19.7378 15.1847 19.9047 14.12 19.9603C13.0552 20.008 12.7135 20.0238 9.99603 20.0238C7.27851 20.0238 6.93683 20.0159 5.87207 19.9603C4.80731 19.9126 4.08423 19.7457 3.4406 19.4915C2.77314 19.2372 2.16925 18.8478 1.66865 18.3393C1.16011 17.8387 0.762813 17.2348 0.516488 16.5673C0.270163 15.9317 0.103298 15.2006 0.0476758 14.1359C0.0158919 13.0552 0 12.7136 0 9.99603C0 7.27851 0.00794597 6.94478 0.0635677 5.88002C0.11919 4.81526 0.278109 4.09218 0.53238 3.44855C0.778705 2.78109 1.176 2.1772 1.68455 1.6766C2.1772 1.16806 2.78109 0.778705 3.44855 0.524434C4.08423 0.278109 4.80731 0.111244 5.88002 0.0556218C6.94478 0.0158919 7.27851 0 9.99603 0ZM9.99603 4.99802C7.23878 4.99802 4.99801 7.23878 4.99801 9.99603C4.99801 12.7533 7.23878 14.994 9.99603 14.994C12.7533 14.994 14.994 12.7533 14.994 9.99603C14.994 7.23878 12.7612 4.99802 9.99603 4.99802ZM16.4958 4.75169C16.4958 4.06039 15.9396 3.50417 15.2483 3.50417C14.557 3.50417 14.0008 4.06039 14.0008 4.75169C14.0008 5.44299 14.557 5.99921 15.2483 5.99921C15.9396 5.99921 16.4958 5.44299 16.4958 4.75169ZM9.99603 7.0004C11.6488 7.0004 12.9996 8.34327 12.9996 10.004C12.9996 11.6647 11.6567 13.0076 9.99603 13.0076C8.33532 13.0076 6.99245 11.6647 6.99245 10.004C6.99245 8.34327 8.34327 7.0004 9.99603 7.0004Z" fill="white"/>
</svg>
